<svg viewBox="-640 -300.5 1280 601" width="1280" height="601" style="background-color: rgb(255, 255, 255);" xmlns="http://www.w3.org/2000/svg"><path d="M-123.65587008279928,28.057477908506833L-146.44517237086714,25.45130057194941M-146.44517237086714,-93.41087339613927L-146.44517237086714,25.45130057194941M-146.44517237086714,25.45130057194941L-196.61024796056697,54.17916501167164M-123.65587008279928,-90.80469605958186L-123.65587008279928,28.057477908506833M-123.65587008279928,28.057477908506833L-173.8209456724991,56.785342348229065" style="fill:none;stroke:rgb(0,0,0);stroke-width:1;stroke-linecap:round"></path><path d="M-123.65587008279928,28.057477908506833L-146.44517237086714,25.451300571949414L-146.44517237086714,-93.4108733961393z" style="fill:rgb(238,238,238); fill-opacity: 0.4"></path><path d="M-129.41222419180679,2.385314559591379L-152.20152647987467,-0.22086277696603662M-152.20152647987467,-24.38142206704172L-152.20152647987467,-0.22086277696603662M-152.20152647987467,-0.22086277696603662L-162.39834723970247,5.618516134776804" style="fill:none;stroke:rgb(0,0,0);stroke-width:1;stroke-linecap:round"></path><path d="M-129.41222419180679,2.3853145595913747L-152.20152647987467,-0.22086277696604162L-152.20152647987467,-24.38142206704172z" style="fill:rgb(153,221,255); fill-opacity: 0.4"></path><path d="M-129.41222419180679,-21.775244730484303L-152.20152647987467,-24.38142206704172M-152.20152647987467,-24.38142206704172L-162.39834723970247,-18.542043155298877" style="fill:none;stroke:rgb(0,0,0);stroke-width:1;stroke-linecap:round"></path><path d="M-123.65587008279925,-90.80469605958187L-123.65587008279928,28.057477908506833L-146.44517237086714,-93.4108733961393z" style="fill:rgb(238,238,238); fill-opacity: 0.4"></path><path d="M-129.41222379277497,-21.775244507208782L-129.41222379277497,2.385315306532917M-129.41222379277497,2.385315306532917L-139.60904455260277,8.224694218275754M-129.41222379277497,2.385315306532917L-96.71528423220573,-4.686595422685913M-129.41222419180679,-21.775244730484303L-129.41222419180679,2.385314559591379M-129.41222419180679,2.385314559591379L-139.6090449516346,8.22469347133422" style="fill:none;stroke:rgb(0,0,0);stroke-width:1;stroke-linecap:round"></path><path d="M-162.39834723970247,5.6185161347768L-152.20152647987467,-0.22086277696604162L-129.41222419180679,2.3853145595913747zM-129.41222419180679,-21.775244730484303L-129.41222419180679,2.3853145595913747L-152.20152647987467,-24.38142206704172z" style="fill:rgb(153,221,255); fill-opacity: 0.4"></path><path d="M-123.65587008279928,-90.80469605958186L-146.44517237086714,-93.41087339613927M-146.44517237086714,-93.41087339613927L-196.61024796056697,-64.68300895641704" style="fill:none;stroke:rgb(0,0,0);stroke-width:1;stroke-linecap:round"></path><path d="M-152.20152647987467,-24.38142206704172L-152.20152647987467,-0.22086277696604162L-162.39834723970247,-18.542043155298877z" style="fill:rgb(153,221,255); fill-opacity: 0.4"></path><path d="M-129.41222379277497,-21.775244507208782L-139.60904455260277,-15.935865595465943M-129.41222379277497,-21.775244507208782L-96.71528423220573,-4.686595422685913M-129.41222419180679,-21.775244730484303L-139.6090449516346,-15.935865818741462" style="fill:none;stroke:rgb(0,0,0);stroke-width:1;stroke-linecap:round"></path><path d="M-152.20152647987467,-0.22086277696604162L-162.39834723970247,5.6185161347768L-162.39834723970247,-18.542043155298877z" style="fill:rgb(153,221,255); fill-opacity: 0.4"></path><path d="M-129.41222439752312,-21.775244754009954L-129.41222439752312,2.38531453606572L-139.60904515735092,8.224693447808562z" style="fill:rgb(255,187,187); fill-opacity: 0.4"></path><path d="M-139.6090449516346,8.224693471334216L-129.41222419180679,2.3853145595913747L-129.41222419180679,-21.775244730484303z" style="fill:rgb(153,221,255); fill-opacity: 0.4"></path><path d="M-196.61024796056697,54.17916501167164L-146.44517237086714,25.451300571949414L-123.65587008279928,28.057477908506833z" style="fill:rgb(238,238,238); fill-opacity: 0.4"></path><path d="M-139.6090449516346,-15.93586581874146L-129.41222419180679,-21.775244730484303L-152.20152647987467,-24.38142206704172z" style="fill:rgb(153,221,255); fill-opacity: 0.4"></path><path d="M-123.65587008279928,-90.80469605958186L-173.82094567249908,-62.076831619859625" style="fill:none;stroke:rgb(0,0,0);stroke-width:1;stroke-linecap:round"></path><path d="M-139.6090449516346,8.224693471334216L-162.39834723970247,5.6185161347768L-129.41222419180679,2.3853145595913747z" style="fill:rgb(153,221,255); fill-opacity: 0.4"></path><path d="M-162.39834723970247,-18.542043155298877L-162.39834723970247,5.618516134776804M-162.39834723970247,5.618516134776804L-139.6090449516346,8.22469347133422" style="fill:none;stroke:rgb(0,0,0);stroke-width:1;stroke-linecap:round"></path><path d="M-162.39834723970247,-18.542043155298877L-139.6090449516346,-15.93586581874146L-152.20152647987467,-24.38142206704172z" style="fill:rgb(153,221,255); fill-opacity: 0.4"></path><path d="M-129.41222439752312,2.38531453606572L-129.41222439752312,-21.775244754009954L-96.71528451106494,-4.686595612960613z" style="fill:rgb(255,187,187); fill-opacity: 0.4"></path><path d="M6.004233914228765,31.934872012823266L-88.67731165684208,21.107120678516242M-88.67731165684208,-66.9105298471131L-88.67731165684208,21.107120678516242M-88.67731165684208,21.107120678516242L-125.8246390566539,42.380155220876006M-162.39834723970247,-18.542043155298877L-139.6090449516346,-15.935865818741462" style="fill:none;stroke:rgb(0,0,0);stroke-width:1;stroke-linecap:round"></path><path d="M-129.41222439752312,-21.775244754009954L-139.60904515735092,8.224693447808562L-139.60904515735092,-15.935865842267116z" style="fill:rgb(255,187,187); fill-opacity: 0.4"></path><path d="M-139.6090449516346,-15.93586581874146L-139.6090449516346,8.224693471334216L-129.41222419180679,-21.775244730484303zM-162.39834723970247,-18.542043155298877L-162.39834723970247,5.6185161347768L-139.6090449516346,-15.93586581874146zM-162.39834723970247,5.6185161347768L-139.6090449516346,8.224693471334216L-139.6090449516346,-15.93586581874146z" style="fill:rgb(153,221,255); fill-opacity: 0.4"></path><path d="M-139.60904515735092,8.224693447808562L-129.41222439752312,2.38531453606572L-96.71528451106494,-4.686595612960613z" style="fill:rgb(255,187,187); fill-opacity: 0.4"></path><path d="M-139.60904455260277,8.224694218275754L-139.60904455260277,-15.935865595465943M-139.60904455260277,8.224694218275754L-96.71528423220573,-4.686595422685913M-139.6090449516346,-15.935865818741462L-139.6090449516346,8.22469347133422" style="fill:none;stroke:rgb(0,0,0);stroke-width:1;stroke-linecap:round"></path><path d="M-129.41222439752312,-21.775244754009954L-139.60904515735092,-15.935865842267116L-96.71528451106494,-4.686595612960613z" style="fill:rgb(255,187,187); fill-opacity: 0.4"></path><path d="M-173.82094567249908,56.785342348229065L-123.65587008279928,28.057477908506833L-123.65587008279925,-90.80469605958187zM-146.44517237086714,-93.4108733961393L-146.44517237086714,25.451300571949414L-196.61024796056697,-64.68300895641704z" style="fill:rgb(238,238,238); fill-opacity: 0.4"></path><path d="M-139.60904455260277,-15.935865595465943L-96.71528423220573,-4.686595422685913" style="fill:none;stroke:rgb(0,0,0);stroke-width:1;stroke-linecap:round"></path><path d="M-139.60904515735092,-15.935865842267116L-139.60904515735092,8.224693447808562L-96.71528451106494,-4.686595612960613z" style="fill:rgb(255,187,187); fill-opacity: 0.4"></path><path d="M6.004233914228769,31.934872012823266L-88.67731165684211,21.107120678516246L-88.67731165684211,-66.9105298471131z" style="fill:rgb(238,238,238); fill-opacity: 0.4"></path><path d="M6.004233914228765,-56.08277851280609L-88.67731165684208,-66.9105298471131M-88.67731165684208,-66.9105298471131L-125.8246390566539,-45.637495304753344" style="fill:none;stroke:rgb(0,0,0);stroke-width:1;stroke-linecap:round"></path><path d="M-173.82094567249908,-62.076831619859625L-123.65587008279925,-90.80469605958187L-146.44517237086714,-93.4108733961393zM-173.82094567249908,56.785342348229065L-196.61024796056697,54.17916501167164L-123.65587008279928,28.057477908506833zM-146.44517237086714,25.451300571949414L-196.61024796056697,54.17916501167164L-196.61024796056697,-64.68300895641704zM-125.82463905665391,42.380155220876006L-88.67731165684211,21.107120678516246L6.004233914228769,31.934872012823266z" style="fill:rgb(238,238,238); fill-opacity: 0.4"></path><path d="M6.004233914228765,-56.08277851280609L6.004233914228765,31.934872012823266M6.004233914228765,31.934872012823266L-31.143093485583037,53.20790655518302" style="fill:none;stroke:rgb(0,0,0);stroke-width:1;stroke-linecap:round"></path><path d="M-88.67731165684211,-66.9105298471131L-88.67731165684211,21.107120678516246L-125.82463905665391,-45.63749530475334zM6.004233914228774,-56.08277851280607L6.004233914228769,31.934872012823266L-88.67731165684211,-66.9105298471131zM-173.82094567249908,-62.076831619859625L-173.82094567249908,56.785342348229065L-123.65587008279925,-90.80469605958187zM-196.61024796056697,-64.68300895641704L-173.82094567249908,-62.076831619859625L-146.44517237086714,-93.4108733961393zM-88.67731165684211,21.107120678516246L-125.82463905665391,42.380155220876006L-125.82463905665391,-45.63749530475334z" style="fill:rgb(238,238,238); fill-opacity: 0.4"></path><path d="M-196.61024796056697,-64.68300895641704L-196.61024796056697,54.17916501167164M-196.61024796056697,54.17916501167164L-173.8209456724991,56.785342348229065M6.004233914228765,-56.08277851280609L-31.143093485583037,-34.80974397044632M159.22152810636914,43.9086740369709L44.19393885356435,30.754155640571536M44.193938853564354,-41.63608595329505L44.19393885356435,30.754155640571536M44.19393885356435,30.754155640571536L13.642066712239567,48.25019309169254M-20.19885784277986,-1.685538678039904L-114.88040341385073,-12.513290012346923M-114.88040341385071,-23.495362416926774L-114.88040341385073,-12.513290012346923M-114.88040341385073,-12.513290012346923L-119.51532194104517,-9.859026870645632M-173.82094567249908,-62.076831619859625L-173.8209456724991,56.785342348229065M-20.19885784277985,-12.667611082619759L-114.88040341385071,-23.495362416926774M-114.88040341385071,-23.495362416926774L-119.51532194104516,-20.841099275225485" style="fill:none;stroke:rgb(0,0,0);stroke-width:1;stroke-linecap:round"></path><path d="M-114.88040341385073,-23.495362416926774L-114.88040341385073,-12.513290012346923L-119.51532194104519,-20.841099275225485z" style="fill:rgb(153,221,255); fill-opacity: 0.4"></path><path d="M-31.14309348558303,53.20790655518303L6.004233914228769,31.934872012823266L6.004233914228774,-56.08277851280607z" style="fill:rgb(238,238,238); fill-opacity: 0.4"></path><path d="M-114.88040341385073,-12.513290012346923L-119.51532194104519,-9.859026870645632L-119.51532194104519,-20.841099275225485z" style="fill:rgb(153,221,255); fill-opacity: 0.4"></path><path d="M-31.143093485583027,-34.80974397044632L6.004233914228774,-56.08277851280607L-88.67731165684211,-66.9105298471131z" style="fill:rgb(238,238,238); fill-opacity: 0.4"></path><path d="M-119.51532194104516,-20.841099275225485L-119.51532194104517,-9.859026870645632M-119.51532194104517,-9.859026870645632L-24.833776369974316,0.9687244636613879" style="fill:none;stroke:rgb(0,0,0);stroke-width:1;stroke-linecap:round"></path><path d="M-196.61024796056697,54.17916501167164L-173.82094567249908,56.785342348229065L-173.82094567249908,-62.076831619859625z" style="fill:rgb(238,238,238); fill-opacity: 0.4"></path><path d="M-125.8246390566539,-45.637495304753344L-125.8246390566539,42.380155220876006M-125.8246390566539,42.380155220876006L-31.143093485583037,53.20790655518302" style="fill:none;stroke:rgb(0,0,0);stroke-width:1;stroke-linecap:round"></path><path d="M-31.14309348558303,53.20790655518303L-125.82463905665391,42.380155220876006L6.004233914228769,31.934872012823266z" style="fill:rgb(238,238,238); fill-opacity: 0.4"></path><path d="M-119.51532194104516,-20.841099275225485L-24.83377636997431,-10.013347940918466" style="fill:none;stroke:rgb(0,0,0);stroke-width:1;stroke-linecap:round"></path><path d="M-20.19885784277985,-1.6855386780399042L-114.88040341385073,-12.513290012346923L-114.88040341385073,-23.495362416926774zM-119.51532194104519,-9.859026870645632L-114.88040341385073,-12.513290012346923L-20.19885784277985,-1.6855386780399042z" style="fill:rgb(153,221,255); fill-opacity: 0.4"></path><path d="M-196.61024796056697,-64.68300895641704L-196.61024796056697,54.17916501167164L-173.82094567249908,-62.076831619859625z" style="fill:rgb(238,238,238); fill-opacity: 0.4"></path><path d="M159.22152810636914,-28.481567556895666L44.193938853564354,-41.63608595329505M44.193938853564354,-41.63608595329505L13.642066712239576,-24.140048502174025" style="fill:none;stroke:rgb(0,0,0);stroke-width:1;stroke-linecap:round"></path><path d="M-125.82463905665391,-45.63749530475334L-31.143093485583027,-34.80974397044632L-88.67731165684211,-66.9105298471131zM159.22152810636914,43.9086740369709L44.193938853564354,30.754155640571536L44.19393885356436,-41.63608595329504z" style="fill:rgb(238,238,238); fill-opacity: 0.4"></path><path d="M-119.51532194104519,-20.841099275225485L-24.83377636997431,-10.013347940918466L-114.88040341385073,-23.495362416926774z" style="fill:rgb(153,221,255); fill-opacity: 0.4"></path><path d="M154.76618685545697,-13.584900638729389L39.73859760265219,-26.73941903512876M39.73859760265219,-33.32866247787667L39.73859760265219,-26.73941903512876M39.73859760265219,-26.73941903512876L36.957646486335506,-25.146861150107984M-196.61024796056697,-64.68300895641704L-173.82094567249908,-62.076831619859625" style="fill:none;stroke:rgb(0,0,0);stroke-width:1;stroke-linecap:round"></path><path d="M-119.51532194104519,-20.841099275225485L-119.51532194104519,-9.859026870645632L-24.83377636997431,-10.013347940918466z" style="fill:rgb(153,221,255); fill-opacity: 0.4"></path><path d="M154.76618685545697,-20.174144081477298L39.73859760265219,-33.32866247787667M39.73859760265219,-33.32866247787667L36.957646486335506,-31.736104592855895" style="fill:none;stroke:rgb(0,0,0);stroke-width:1;stroke-linecap:round"></path><path d="M39.73859760265219,-33.32866247787667L39.73859760265219,-26.73941903512876L36.95764648633552,-31.736104592855895zM39.73859760265219,-26.73941903512876L36.95764648633552,-25.146861150107984L36.95764648633552,-31.736104592855895zM-20.19885784277985,-12.667611082619759L-20.19885784277985,-1.6855386780399042L-114.88040341385073,-23.495362416926774z" style="fill:rgb(153,221,255); fill-opacity: 0.4"></path><path d="M36.957646486335506,-31.736104592855895L36.957646486335506,-25.146861150107984M36.957646486335506,-25.146861150107984L151.98523573914028,-11.992342753708613M36.957646486335506,-31.736104592855895L151.98523573914028,-18.581586196456524" style="fill:none;stroke:rgb(0,0,0);stroke-width:1;stroke-linecap:round"></path><path d="M44.19393885356436,-41.63608595329504L44.193938853564354,30.754155640571536L13.642066712239576,-24.140048502174025z" style="fill:rgb(238,238,238); fill-opacity: 0.4"></path><path d="M-24.83377636997431,-10.013347940918466L-20.19885784277985,-12.667611082619759L-114.88040341385073,-23.495362416926774zM-24.83377636997431,0.968724463661387L-119.51532194104519,-9.859026870645632L-20.19885784277985,-1.6855386780399042z" style="fill:rgb(153,221,255); fill-opacity: 0.4"></path><path d="M-125.8246390566539,-45.637495304753344L-31.143093485583037,-34.80974397044632" style="fill:none;stroke:rgb(0,0,0);stroke-width:1;stroke-linecap:round"></path><path d="M13.642066712239572,48.25019309169255L44.193938853564354,30.754155640571536L159.22152810636914,43.9086740369709z" style="fill:rgb(238,238,238); fill-opacity: 0.4"></path><path d="M-119.51532194104519,-9.859026870645632L-24.83377636997431,0.968724463661387L-24.83377636997431,-10.013347940918466z" style="fill:rgb(153,221,255); fill-opacity: 0.4"></path><path d="M-125.82463905665391,-45.63749530475334L-125.82463905665391,42.380155220876006L-31.143093485583027,-34.80974397044632zM-31.143093485583027,-34.80974397044632L-31.14309348558303,53.20790655518303L6.004233914228774,-56.08277851280607z" style="fill:rgb(238,238,238); fill-opacity: 0.4"></path><path d="M-20.19885784277985,-12.667611082619759L-20.19885784277986,-1.685538678039904M-20.19885784277986,-1.685538678039904L-24.833776369974316,0.9687244636613879M-20.198858153903196,-12.667611461955428L-20.198858153903203,-1.685538533709555M-20.198858153903203,-1.685538533709555L-24.833776681097657,0.9687246079917358M-20.198858153903203,-1.685538533709555L20.737170390774587,-0.32160825783148667" style="fill:none;stroke:rgb(0,0,0);stroke-width:1;stroke-linecap:round"></path><path d="M154.766186855457,-13.58490063872939L39.73859760265219,-26.73941903512876L39.73859760265219,-33.32866247787667zM36.95764648633552,-25.146861150107984L39.73859760265219,-26.73941903512876L154.766186855457,-13.58490063872939z" style="fill:rgb(153,221,255); fill-opacity: 0.4"></path><path d="M-20.19885784277985,-12.667611082619759L-24.83377636997431,-10.013347940918466M-20.198858153903196,-12.667611461955428L-24.833776681097657,-10.013348320254137M-20.198858153903196,-12.667611461955428L20.737170390774587,-0.32160825783148667" style="fill:none;stroke:rgb(0,0,0);stroke-width:1;stroke-linecap:round"></path><path d="M159.22152810636916,-28.48156755689567L159.22152810636914,43.9086740369709L44.19393885356436,-41.63608595329504z" style="fill:rgb(238,238,238); fill-opacity: 0.4"></path><path d="M-20.198858147270222,-12.66761111744118L-20.198858147270222,-1.6855387128613257L-24.83377667446468,0.9687244288399655z" style="fill:rgb(255,187,187); fill-opacity: 0.4"></path><path d="M-24.83377636997431,0.968724463661387L-20.19885784277985,-1.6855386780399042L-20.19885784277985,-12.667611082619759z" style="fill:rgb(153,221,255); fill-opacity: 0.4"></path><path d="M-125.82463905665391,42.380155220876006L-31.14309348558303,53.20790655518303L-31.143093485583027,-34.80974397044632z" style="fill:rgb(238,238,238); fill-opacity: 0.4"></path><path d="M36.95764648633552,-31.736104592855895L151.9852357391403,-18.581586196456527L39.73859760265219,-33.32866247787667zM36.95764648633552,-31.736104592855895L36.95764648633552,-25.146861150107984L151.9852357391403,-18.581586196456527z" style="fill:rgb(153,221,255); fill-opacity: 0.4"></path><path d="M159.22152810636914,-28.481567556895666L159.22152810636914,43.9086740369709M159.22152810636914,43.9086740369709L128.66965596504434,61.40471148809192" style="fill:none;stroke:rgb(0,0,0);stroke-width:1;stroke-linecap:round"></path><path d="M-20.198858147270222,-1.6855387128613257L-20.198858147270222,-12.66761111744118L20.737171345912408,-0.3216081040199237z" style="fill:rgb(255,187,187); fill-opacity: 0.4"></path><path d="M44.193938853564354,30.754155640571536L13.642066712239572,48.25019309169255L13.642066712239576,-24.140048502174025z" style="fill:rgb(238,238,238); fill-opacity: 0.4"></path><path d="M-20.198858147270222,-12.66761111744118L-24.83377667446468,0.9687244288399655L-24.83377667446468,-10.013347975739888z" style="fill:rgb(255,187,187); fill-opacity: 0.4"></path><path d="M-24.83377636997431,-10.013347940918466L-24.83377636997431,0.968724463661387L-20.19885784277985,-12.667611082619759z" style="fill:rgb(153,221,255); fill-opacity: 0.4"></path><path d="M-24.83377636997431,-10.013347940918466L-24.833776369974316,0.9687244636613879M-24.833776681097657,0.9687246079917358L-24.833776681097657,-10.013348320254137M-24.833776681097657,0.9687246079917358L20.737170390774587,-0.32160825783148667" style="fill:none;stroke:rgb(0,0,0);stroke-width:1;stroke-linecap:round"></path><path d="M-24.83377667446468,0.9687244288399655L-20.198858147270222,-1.6855387128613257L20.737171345912408,-0.3216081040199237z" style="fill:rgb(255,187,187); fill-opacity: 0.4"></path><path d="M-31.143093485583037,-34.80974397044632L-31.143093485583037,53.20790655518302" style="fill:none;stroke:rgb(0,0,0);stroke-width:1;stroke-linecap:round"></path><path d="M-20.198858147270222,-12.66761111744118L-24.83377667446468,-10.013347975739888L20.737171345912408,-0.3216081040199237z" style="fill:rgb(255,187,187); fill-opacity: 0.4"></path><path d="M-24.833776681097657,-10.013348320254137L20.737170390774587,-0.32160825783148667" style="fill:none;stroke:rgb(0,0,0);stroke-width:1;stroke-linecap:round"></path><path d="M-24.83377667446468,-10.013347975739888L-24.83377667446468,0.9687244288399655L20.737171345912408,-0.3216081040199237z" style="fill:rgb(255,187,187); fill-opacity: 0.4"></path><path d="M154.766186855457,-20.1741440814773L154.766186855457,-13.58490063872939L39.73859760265219,-33.32866247787667zM151.9852357391403,-18.581586196456527L154.766186855457,-20.1741440814773L39.73859760265219,-33.32866247787667zM151.9852357391403,-11.992342753708616L36.95764648633552,-25.146861150107984L154.766186855457,-13.58490063872939zM36.95764648633552,-25.146861150107984L151.9852357391403,-11.992342753708616L151.9852357391403,-18.581586196456527z" style="fill:rgb(153,221,255); fill-opacity: 0.4"></path><path d="M13.642066712239576,-24.140048502174025L13.642066712239567,48.25019309169254M13.642066712239567,48.25019309169254L128.66965596504434,61.40471148809192M159.22152810636914,-28.481567556895666L128.66965596504434,-10.985530105774655" style="fill:none;stroke:rgb(0,0,0);stroke-width:1;stroke-linecap:round"></path><path d="M128.66965596504437,-10.985530105774657L159.22152810636916,-28.48156755689567L44.19393885356436,-41.63608595329504z" style="fill:rgb(238,238,238); fill-opacity: 0.4"></path><path d="M154.7661798784462,-20.174144244125305L154.7661798784462,-13.584900801377396M154.7661798784462,-13.584900801377396L151.9852287621295,-11.992342916356622M154.7661798784462,-13.584900801377396L192.77190671707564,-4.121589015101705M154.76618685545697,-20.174144081477298L154.76618685545697,-13.584900638729389M154.76618685545697,-13.584900638729389L151.98523573914028,-11.992342753708613M154.7661798784462,-20.174144244125305L151.9852287621295,-18.58158635910453M154.7661798784462,-20.174144244125305L192.77190671707564,-4.121589015101705M154.76618685545697,-20.174144081477298L151.98523573914028,-18.581586196456524M320.7597970454728,56.68285173092116L197.32135811775066,42.566471249984076M197.3213581177507,-13.770449175683263L197.32135811775066,42.566471249984076M197.32135811775066,42.566471249984076L173.54469496835168,56.18257264633325" style="fill:none;stroke:rgb(0,0,0);stroke-width:1;stroke-linecap:round"></path><path d="M128.66965596504434,61.40471148809192L13.642066712239572,48.25019309169255L159.22152810636914,43.9086740369709z" style="fill:rgb(238,238,238); fill-opacity: 0.4"></path><path d="M154.76618669741856,-20.174144099550524L154.76618669741856,-13.584900656802615L151.98523558110188,-11.992342771781841z" style="fill:rgb(255,187,187); fill-opacity: 0.4"></path><path d="M151.9852357391403,-11.992342753708616L154.766186855457,-13.58490063872939L154.766186855457,-20.1741440814773z" style="fill:rgb(153,221,255); fill-opacity: 0.4"></path><path d="M128.66965596504434,61.40471148809192L159.22152810636914,43.9086740369709L159.22152810636916,-28.48156755689567zM13.642066712239576,-24.140048502174025L128.66965596504437,-10.985530105774657L44.19393885356436,-41.63608595329504z" style="fill:rgb(238,238,238); fill-opacity: 0.4"></path><path d="M154.76618669741856,-20.174144099550524L151.98523558110188,-11.992342771781841L151.98523558110188,-18.58158621452975z" style="fill:rgb(255,187,187); fill-opacity: 0.4"></path><path d="M151.9852357391403,-18.581586196456527L151.9852357391403,-11.992342753708616L154.766186855457,-20.1741440814773z" style="fill:rgb(153,221,255); fill-opacity: 0.4"></path><path d="M151.9852287621295,-11.992342916356622L151.9852287621295,-18.58158635910453M151.9852287621295,-11.992342916356622L192.77190671707564,-4.121589015101705M151.98523573914028,-18.581586196456524L151.98523573914028,-11.992342753708613M151.9852287621295,-18.58158635910453L192.77190671707564,-4.121589015101705" style="fill:none;stroke:rgb(0,0,0);stroke-width:1;stroke-linecap:round"></path><path d="M154.76618669741856,-13.584900656802615L154.76618669741856,-20.174144099550524L192.77191312569502,-4.121588665951466z" style="fill:rgb(255,187,187); fill-opacity: 0.4"></path><path d="M13.642066712239576,-24.140048502174025L128.66965596504434,-10.985530105774655" style="fill:none;stroke:rgb(0,0,0);stroke-width:1;stroke-linecap:round"></path><path d="M151.98523558110188,-11.992342771781841L154.76618669741856,-13.584900656802615L192.77191312569502,-4.121588665951466zM154.76618669741856,-20.174144099550524L151.98523558110188,-18.58158621452975L192.77191312569502,-4.121588665951466zM151.98523558110188,-18.58158621452975L151.98523558110188,-11.992342771781841L192.77191312569502,-4.121588665951466z" style="fill:rgb(255,187,187); fill-opacity: 0.4"></path><path d="M320.7597970454728,0.3459313052538096L197.3213581177507,-13.770449175683263M197.3213581177507,-13.770449175683263L173.54469496835173,-0.1543477793340946" style="fill:none;stroke:rgb(0,0,0);stroke-width:1;stroke-linecap:round"></path><path d="M13.642066712239576,-24.140048502174025L13.642066712239572,48.25019309169255L128.66965596504437,-10.985530105774657zM320.75979704547274,56.68285173092115L197.3213581177507,42.56647124998408L197.3213581177507,-13.770449175683266zM197.3213581177507,-13.770449175683266L197.3213581177507,42.56647124998408L173.54469496835168,-0.1543477793340954zM13.642066712239572,48.25019309169255L128.66965596504434,61.40471148809192L128.66965596504437,-10.985530105774657zM128.66965596504437,-10.985530105774657L128.66965596504434,61.40471148809192L159.22152810636916,-28.48156755689567zM173.54469496835168,56.182572646333256L197.3213581177507,42.56647124998408L320.75979704547274,56.68285173092115z" style="fill:rgb(238,238,238); fill-opacity: 0.4"></path><path d="M128.66965596504434,-10.985530105774655L128.66965596504434,61.40471148809192" style="fill:none;stroke:rgb(0,0,0);stroke-width:1;stroke-linecap:round"></path><path d="M197.3213581177507,42.56647124998408L173.54469496835168,56.182572646333256L173.54469496835168,-0.1543477793340954zM320.75979704547274,0.34593130525380467L320.75979704547274,56.68285173092115L197.3213581177507,-13.770449175683266z" style="fill:rgb(238,238,238); fill-opacity: 0.4"></path><path d="M173.54469496835173,-0.1543477793340946L173.54469496835168,56.18257264633325M173.54469496835168,56.18257264633325L296.9831338960738,70.29895312727032M320.7597970454728,0.3459313052538096L320.7597970454728,56.68285173092116M320.7597970454728,56.68285173092116L296.9831338960738,70.29895312727032M173.54469496835173,-0.1543477793340946L296.98313389607387,13.962032701602983" style="fill:none;stroke:rgb(0,0,0);stroke-width:1;stroke-linecap:round"></path><path d="M173.54469496835168,-0.1543477793340954L296.9831338960738,13.962032701602977L197.3213581177507,-13.770449175683266zM296.9831338960738,13.962032701602977L320.75979704547274,0.34593130525380467L197.3213581177507,-13.770449175683266z" style="fill:rgb(238,238,238); fill-opacity: 0.4"></path><path d="M320.7597970454728,0.3459313052538096L296.98313389607387,13.962032701602983" style="fill:none;stroke:rgb(0,0,0);stroke-width:1;stroke-linecap:round"></path><path d="M296.9831338960738,70.29895312727032L173.54469496835168,56.182572646333256L320.75979704547274,56.68285173092115zM296.9831338960738,70.29895312727032L320.75979704547274,56.68285173092115L320.75979704547274,0.34593130525380467zM173.54469496835168,-0.1543477793340954L173.54469496835168,56.182572646333256L296.9831338960738,13.962032701602977z" style="fill:rgb(238,238,238); fill-opacity: 0.4"></path><path d="M375.1392537996253,93.9789559473441L360.7608051430247,92.33464114779417M360.7608051430247,-14.236052385536336L360.7608051430247,92.33464114779417M360.7608051430247,92.33464114779417L354.335443706869,96.01423118417395M318.1350630651492,36.381824280718284L341.64460844944364,39.070368387897744" style="fill:none;stroke:rgb(0,0,0);stroke-width:1;stroke-linecap:round"></path><path d="M173.54469496835168,56.182572646333256L296.9831338960738,70.29895312727032L296.9831338960738,13.962032701602977z" style="fill:rgb(238,238,238); fill-opacity: 0.4"></path><path d="M375.1392537996253,-12.591737585986413L375.1392537996253,93.9789559473441M375.1392537996253,93.9789559473441L368.71389236346965,97.65854598372388" style="fill:none;stroke:rgb(0,0,0);stroke-width:1;stroke-linecap:round"></path><path d="M354.3354437068691,96.01423118417394L360.7608051430247,92.33464114779416L375.1392537996253,93.9789559473441zM296.9831338960738,13.962032701602977L296.9831338960738,70.29895312727032L320.75979704547274,0.34593130525380467zM375.1392537996253,93.9789559473441L360.7608051430247,92.33464114779416L360.7608051430247,-14.236052385536336zM368.7138923634697,97.65854598372388L354.3354437068691,96.01423118417394L375.1392537996253,93.9789559473441z" style="fill:rgb(238,238,238); fill-opacity: 0.4"></path><path d="M354.335443706869,-10.556462349156558L354.335443706869,96.01423118417395M354.335443706869,96.01423118417395L368.71389236346965,97.65854598372388" style="fill:none;stroke:rgb(0,0,0);stroke-width:1;stroke-linecap:round"></path><path d="M343.0067768081295,33.8479583842722L340.28244009075786,35.408095092625544L355.4737527931463,40.65186492153271zM339.4405736605873,42.02936909611602L341.64460844944364,44.56140459018766L355.4737527931463,40.65186492153271z" style="fill:rgb(0,0,0)"></path><path d="M296.98313389607387,13.962032701602983L296.9831338960738,70.29895312727032" style="fill:none;stroke:rgb(0,0,0);stroke-width:1;stroke-linecap:round"></path><path d="M360.7608051430247,92.33464114779416L354.3354437068691,96.01423118417394L354.3354437068691,-10.556462349156558z" style="fill:rgb(238,238,238); fill-opacity: 0.4"></path><path d="M340.28244009075786,35.408095092625544L339.4405736605873,42.02936909611602L355.4737527931463,40.65186492153271z" style="fill:rgb(0,0,0)"></path><path d="M368.71389236346965,-8.912147549606637L368.71389236346965,97.65854598372388" style="fill:none;stroke:rgb(0,0,0);stroke-width:1;stroke-linecap:round"></path><path d="M368.7138923634697,97.65854598372388L375.1392537996253,93.9789559473441L375.1392537996253,-12.591737585986413zM375.1392537996253,-12.591737585986413L375.1392537996253,93.9789559473441L360.7608051430247,-14.236052385536336zM360.7608051430247,-14.236052385536336L360.7608051430247,92.33464114779416L354.3354437068691,-10.556462349156558zM354.3354437068691,96.01423118417394L368.7138923634697,97.65854598372388L368.7138923634697,-8.912147549606637z" style="fill:rgb(238,238,238); fill-opacity: 0.4"></path><path d="M374.000944713348,42.77062867665482L397.5104900976425,45.45917278383427M375.1392537996253,-12.591737585986413L360.7608051430247,-14.236052385536336M360.7608051430247,-14.236052385536336L354.335443706869,-10.556462349156558" style="fill:none;stroke:rgb(0,0,0);stroke-width:1;stroke-linecap:round"></path><path d="M368.7138923634697,-8.912147549606637L368.7138923634697,97.65854598372388L375.1392537996253,-12.591737585986413z" style="fill:rgb(238,238,238); fill-opacity: 0.4"></path><path d="M375.1392537996253,-12.591737585986413L368.71389236346965,-8.912147549606637" style="fill:none;stroke:rgb(0,0,0);stroke-width:1;stroke-linecap:round"></path><path d="M354.3354437068691,-10.556462349156558L354.3354437068691,96.01423118417394L368.7138923634697,-8.912147549606637zM368.7138923634697,-8.912147549606637L375.1392537996253,-12.591737585986413L360.7608051430247,-14.236052385536336z" style="fill:rgb(238,238,238); fill-opacity: 0.4"></path><path d="M431.00513544782416,48.180620817073375L416.62668679122356,46.53630601752345M416.62668679122356,44.33989153660748L416.62668679122356,46.53630601752345M416.62668679122356,46.53630601752345L410.20132535506787,50.21589605390322M431.00513544782416,45.984206336157406L416.62668679122356,44.33989153660748M416.62668679122356,44.33989153660748L410.20132535506787,48.01948157298725" style="fill:none;stroke:rgb(0,0,0);stroke-width:1;stroke-linecap:round"></path><path d="M354.3354437068691,-10.556462349156558L368.7138923634697,-8.912147549606637L360.7608051430247,-14.236052385536336zM431.0051354478241,48.180620817073375L416.62668679122356,46.53630601752345L416.62668679122356,44.33989153660748z" style="fill:rgb(238,238,238); fill-opacity: 0.4"></path><path d="M398.87265845632834,40.236762780208736L396.1483217389567,41.79689948856208L411.33963444134514,47.040669317469245zM395.30645530878616,48.41817349205256L397.5104900976425,50.9502089861242L411.33963444134514,47.040669317469245z" style="fill:rgb(0,0,0)"></path><path d="M354.335443706869,-10.556462349156558L368.71389236346965,-8.912147549606637" style="fill:none;stroke:rgb(0,0,0);stroke-width:1;stroke-linecap:round"></path><path d="M431.0051354478241,45.984206336157406L431.0051354478241,48.180620817073375L416.62668679122356,44.33989153660748zM416.62668679122356,44.33989153660748L416.62668679122356,46.53630601752345L410.201325355068,48.01948157298725z" style="fill:rgb(238,238,238); fill-opacity: 0.4"></path><path d="M396.1483217389567,41.79689948856208L395.30645530878616,48.41817349205256L411.33963444134514,47.040669317469245z" style="fill:rgb(0,0,0)"></path><path d="M431.00513544782416,45.984206336157406L431.00513544782416,48.180620817073375M431.00513544782416,48.180620817073375L424.5797740116685,51.86021085345315" style="fill:none;stroke:rgb(0,0,0);stroke-width:1;stroke-linecap:round"></path><path d="M410.201325355068,50.21589605390322L416.62668679122356,46.53630601752345L431.0051354478241,48.180620817073375z" style="fill:rgb(238,238,238); fill-opacity: 0.4"></path><path d="M431.00513544782416,45.984206336157406L424.5797740116685,49.66379637253718" style="fill:none;stroke:rgb(0,0,0);stroke-width:1;stroke-linecap:round"></path><path d="M424.5797740116685,49.66379637253718L431.0051354478241,45.984206336157406L416.62668679122356,44.33989153660748zM416.62668679122356,46.53630601752345L410.201325355068,50.21589605390322L410.201325355068,48.01948157298725zM424.5797740116685,51.86021085345315L431.0051354478241,48.180620817073375L431.0051354478241,45.984206336157406zM410.201325355068,48.01948157298725L424.5797740116685,49.66379637253718L416.62668679122356,44.33989153660748zM424.5797740116685,51.86021085345315L410.201325355068,50.21589605390322L431.0051354478241,48.180620817073375z" style="fill:rgb(238,238,238); fill-opacity: 0.4"></path><path d="M410.20132535506787,48.01948157298725L410.20132535506787,50.21589605390322M410.20132535506787,50.21589605390322L424.5797740116685,51.86021085345315M410.20132535506787,48.01948157298725L424.5797740116685,49.66379637253718" style="fill:none;stroke:rgb(0,0,0);stroke-width:1;stroke-linecap:round"></path><path d="M424.5797740116685,49.66379637253718L424.5797740116685,51.86021085345315L431.0051354478241,45.984206336157406zM410.201325355068,48.01948157298725L410.201325355068,50.21589605390322L424.5797740116685,49.66379637253718zM410.201325355068,50.21589605390322L424.5797740116685,51.86021085345315L424.5797740116685,49.66379637253718z" style="fill:rgb(238,238,238); fill-opacity: 0.4"></path><path d="M424.5797740116685,49.66379637253718L424.5797740116685,51.86021085345315" style="fill:none;stroke:rgb(0,0,0);stroke-width:1;stroke-linecap:round"></path></svg>